<?xml version="1.0" encoding="UTF-8" standalone="no"?>
<!DOCTYPE svg PUBLIC "-//W3C//DTD SVG 1.1//EN" "http://www.w3.org/Graphics/SVG/1.1/DTD/svg11.dtd">
<svg width="100%" height="100%" viewBox="0 0 427 427" version="1.1" xmlns="http://www.w3.org/2000/svg" xmlns:xlink="http://www.w3.org/1999/xlink" xml:space="preserve" xmlns:serif="http://www.serif.com/" style="fill-rule:evenodd;clip-rule:evenodd;stroke-linecap:square;stroke-linejoin:bevel;stroke-miterlimit:1.5;">
    <g transform="matrix(1,0,0,1,-1209.53,-2536.99)">
        <g transform="matrix(0.168537,0,0,2.51538,1123.08,-4097.95)">
            <g transform="matrix(5.93343,0,0,0.397554,-5803.83,2076.99)">
                <g transform="matrix(1.46219e-17,-0.238794,0.238794,1.46219e-17,1053.4,2102.66)">
                    <text x="1338.82px" y="1051.67px" style="font-family:'Avenir-Black', 'Avenir', sans-serif;font-weight:800;font-size:375px;fill:rgb(255,10,10);">G<tspan x="1641.82px " y="1051.67px ">e</tspan></text>
                </g>
                <g transform="matrix(0.564202,0,0,0.564202,918.656,1010.89)">
                    <text x="294.694px" y="1134.21px" style="font-family:'Avenir-Black', 'Avenir', sans-serif;font-weight:800;font-size:158.716px;fill:white;">U<tspan x="417.064px 512.928px " y="1134.21px 1134.21px ">nc</tspan></text>
                    <text x="594.191px" y="1134.21px" style="font-family:'Avenir-Black', 'Avenir', sans-serif;font-weight:800;font-size:158.716px;fill:rgb(255,10,10);">o</text>
                    <text x="695.769px" y="1134.21px" style="font-family:'Avenir-Black', 'Avenir', sans-serif;font-weight:800;font-size:158.716px;fill:white;">n<tspan x="791.634px " y="1134.21px ">f</tspan></text>
                </g>
                <g transform="matrix(0.499055,0,0,0.638278,936.168,626.299)">
                    <path d="M272.126,1462.21L556.127,1462.21L556.127,1240.16" style="fill:none;stroke:rgb(255,10,10);stroke-width:18.18px;"/>
                </g>
                <g transform="matrix(-0.0966386,-2.55032e-17,-2.36258e-16,-0.637072,1395.49,2619.17)">
                    <path d="M-910.495,1462.21L556.127,1462.21L556.127,1240.16" style="fill:none;stroke:rgb(255,10,10);stroke-width:22.86px;"/>
                </g>
                <g transform="matrix(-9.1675e-17,-0.499055,0.637072,-1.17028e-16,281.904,1965.17)">
                    <path d="M272.126,1462.21L556.127,1462.21L556.127,1240.16" style="fill:none;stroke:rgb(255,10,10);stroke-width:18.2px;"/>
                </g>
            </g>
        </g>
    </g>
</svg>
